<svg xmlns="https://www.w3.org/2000/svg" xmlns:cc="https://creativecommons.org/ns#" xmlns:dc="https://purl.org/dc/elements/1.1/" xmlns:inkscape="https://www.inkscape.org/namespaces/inkscape" xmlns:rdf="https://www.w3.org/1999/02/22-rdf-syntax-ns#" xmlns:sodipodi="https://sodipodi.sourceforge.net/DTD/sodipodi-0.dtd" xmlns:svg="https://www.w3.org/2000/svg" style="enable-background:new 0 0 480.8 480.8" id="Capa_1" x="0" y="0" version="1.1" viewBox="0 0 480.8 480.8" inkscape:export-filename="/home/kdvolder/git/spring-ide/plugins/org.springframework.ide.eclipse.boot.dash/icons/light-bulb@2x.png" inkscape:export-xdpi="6.389" inkscape:export-ydpi="6.389" inkscape:version="0.92.3 (2405546, 2018-03-11)" sodipodi:docname="bulb.svg" xml:space="preserve"><metadata id="metadata65"><rdf:RDF><cc:Work><dc:format>image/svg+xml</dc:format><dc:type rdf:resource="https://purl.org/dc/dcmitype/StillImage"/></cc:Work></rdf:RDF></metadata><sodipodi:namedview id="namedview61" bordercolor="#666666" borderopacity="1" gridtolerance="10" guidetolerance="10" objecttolerance="10" pagecolor="#ffffff" showgrid="false" inkscape:current-layer="Capa_1" inkscape:cx="143.629" inkscape:cy="321.892" inkscape:pageopacity="0" inkscape:pageshadow="2" inkscape:window-height="1145" inkscape:window-maximized="1" inkscape:window-width="1920" inkscape:window-x="0" inkscape:window-y="27" inkscape:zoom=".491"/><g id="g3787" transform="matrix(1.2950492,0,0,1.2047664,-74.77534,-111.1565)"><path id="path2" d="m 317.112,314.4 c -22.4,22.4 -19.6,67.6 -19.6,67.6 h -113.6 c 0,0 2.4,-45.2 -19.6,-67.6 -24.4,-21.6 -40,-52.8 -40,-87.6 0,-64 52,-116 116,-116 64,0 116,52 116,116 0,34.8 -15.2,66 -39.2,87.6 z" inkscape:connector-curvature="0" style="fill:#ffd517"/><g id="g8"><path id="path4" d="m 300.712,417.6 c 0,6 -4.8,10.8 -10.8,10.8 h -98.8 c -6,0 -10.8,-4.8 -10.8,-10.8 v 0 c 0,-6 4.8,-10.8 10.8,-10.8 h 98.4 c 6,0 11.2,4.8 11.2,10.8 z" inkscape:connector-curvature="0" style="fill:#e5e5e5"/><path id="path6" d="m 285.912,462.4 c 0,6 -4.8,10.8 -10.8,10.8 h -69.2 c -6,0 -10.8,-4.8 -10.8,-10.8 v 0 c 0,-6 4.8,-10.8 10.8,-10.8 h 69.2 c 6,0 10.8,4.8 10.8,10.8 z" inkscape:connector-curvature="0" style="fill:#e5e5e5"/></g><path style="fill:#210b20" id="path10" d="m 323.112,318.4 c 26,-23.6 40.8,-56.8 40.8,-91.6 0,-68 -55.6,-123.6 -123.6,-123.6 -68,0 -123.6,55.6 -123.6,123.6 0,35.6 15.6,69.6 42,92.8 19.6,19.6 17.6,61.2 17.6,61.6 0,2 0.8,4 2,5.6 1.6,1.6 3.6,2.4 5.6,2.4 h 113.2 c 2,0 4,-0.8 5.6,-2.4 1.6,-1.6 2,-3.6 2,-5.6 0,-0.4 -2,-42 17.6,-61.6 0.4,-0.4 0.8,-0.8 0.8,-1.2 z m -11.2,-10 c -0.8,0.4 -1.2,1.2 -1.6,2 -17.6,18.8 -20.4,49.6 -20.8,64 h -98 c -0.4,-14.8 -3.6,-46.8 -22.4,-65.6 -23.6,-20.8 -37.2,-50.4 -37.2,-81.6 0,-60 48.8,-108.4 108.4,-108.4 60,0 108.4,48.8 108.4,108.4 0,30.8 -13.2,60.8 -36.8,81.2 z" inkscape:connector-curvature="0"/><path style="fill:#210b20" id="path12" d="m 240.312,135.2 c -4,0 -7.6,3.2 -7.6,7.6 0,4 3.2,7.6 7.6,7.6 44.8,0 81.2,36.4 81.2,81.2 0,4 3.2,7.6 7.6,7.6 4,0 7.6,-3.2 7.6,-7.6 0,-53.2 -43.2,-96.4 -96.4,-96.4 z" inkscape:connector-curvature="0"/><path style="fill:#210b20" id="path14" d="m 308.312,417.6 c 0,-10.4 -8.4,-18.4 -18.4,-18.4 h -98.8 c -10.4,0 -18.4,8.4 -18.4,18.4 0,10.4 8.4,18.4 18.4,18.4 h 98.4 c 10.4,0 18.8,-8 18.8,-18.4 z m -18.8,3.2 h -98.4 c -2,0 -3.2,-1.6 -3.2,-3.2 0,-2 1.6,-3.2 3.2,-3.2 h 98.4 c 2,0 3.2,1.6 3.2,3.2 0.4,2 -1.2,3.2 -3.2,3.2 z" inkscape:connector-curvature="0"/></g><path id="path16" d="m 271.03742,429.73898 h -69.2 c -10.4,0 -18.4,8.4 -18.4,18.4 0,10.4 8.4,18.4 18.4,18.4 h 69.2 c 10.4,0 18.4,-8.4 18.4,-18.4 0,-10 -8.4,-18.4 -18.4,-18.4 z m 0,21.6 h -69.2 c -2,0 -3.2,-1.6 -3.2,-3.2 0,-2 1.6,-3.2 3.2,-3.2 h 69.2 c 2,0 3.2,1.6 3.2,3.2 0,2 -1.2,3.2 -3.2,3.2 z" inkscape:connector-curvature="0" style="fill:#210b20"/></svg>